<?xml version="1.0" standalone="no"?>
<!DOCTYPE svg PUBLIC "-//W3C//DTD SVG 20010904//EN"
 "http://www.w3.org/TR/2001/REC-SVG-20010904/DTD/svg10.dtd">
<svg version="1.0" xmlns="http://www.w3.org/2000/svg"
 width="500.000000pt" height="500.000000pt" viewBox="0 0 500.000000 500.000000"
 preserveAspectRatio="xMidYMid meet">
<metadata>
Created by potrace 1.11, written by Peter Selinger 2001-2013
</metadata>
<g transform="translate(0.000000,500.000000) scale(0.100000,-0.100000)"
fill="#000000" stroke="none">
<path d="M2115 4793 c-60 -6 -136 -19 -167 -27 -372 -101 -590 -400 -624 -861
-4 -49 -7 -272 -8 -495 l-1 -405 -290 0 -290 -1 -3 -172 -2 -172 262 1 c145 0
277 0 295 0 l31 -1 -1 -1223 c0 -673 2 -1228 5 -1233 5 -7 365 -11 399 -5 3 1
5 555 5 1231 l-1 1230 60 0 c64 1 1175 1 1187 0 5 0 9 -554 10 -1232 l3 -1232
200 -1 200 0 3 1233 2 1232 58 0 c31 1 179 2 327 3 l270 2 0 170 0 170 -328 0
-328 -1 4 471 c2 258 7 486 11 505 26 124 40 170 72 230 56 107 127 167 238
205 111 36 289 37 423 1 45 -12 54 -12 64 0 6 8 9 14 6 14 -3 0 0 19 5 43 5
23 12 53 14 67 3 14 12 59 20 100 27 125 27 123 -36 137 -55 13 -191 26 -265
26 -77 1 -242 -14 -276 -23 -19 -6 -47 -13 -64 -16 -16 -3 -58 -17 -94 -31
-316 -126 -494 -411 -526 -840 -2 -21 -4 -229 -4 -463 l-1 -425 -291 0 c-160
0 -293 -4 -296 -8 -3 -4 -10 -4 -16 0 -7 5 -155 9 -329 8 -276 0 -317 2 -320
15 -10 41 1 831 12 923 42 345 199 499 509 498 101 0 116 -1 221 -24 59 -13
65 -12 69 2 35 160 66 332 62 339 -8 13 -102 32 -190 38 -146 10 -187 10 -296
-3z"/>
</g>
</svg>
