<?xml version="1.0" standalone="no"?>
<!DOCTYPE svg PUBLIC "-//W3C//DTD SVG 20010904//EN"
 "http://www.w3.org/TR/2001/REC-SVG-20010904/DTD/svg10.dtd">
<svg version="1.0" xmlns="http://www.w3.org/2000/svg"
 width="500.000000pt" height="500.000000pt" viewBox="0 0 500.000000 500.000000"
 preserveAspectRatio="xMidYMid meet">
<metadata>
Created by potrace 1.11, written by Peter Selinger 2001-2013
</metadata>
<g transform="translate(0.000000,500.000000) scale(0.100000,-0.100000)"
fill="#000000" stroke="none">
<path d="M2338 4995 c-2 -2 -37 -6 -78 -9 -41 -3 -84 -8 -95 -10 -11 -2 -40
-7 -65 -10 -57 -8 -66 -10 -175 -35 -441 -105 -837 -323 -1163 -641 -277 -270
-479 -583 -613 -952 -28 -77 -67 -212 -75 -258 -3 -14 -7 -32 -10 -40 -11 -30
-44 -247 -51 -330 -37 -471 50 -918 259 -1335 130 -259 269 -448 490 -667 219
-216 510 -410 778 -518 30 -12 64 -26 75 -30 95 -39 289 -94 400 -115 17 -3
41 -8 55 -10 230 -45 585 -44 865 0 338 54 772 243 1055 458 379 290 662 663
835 1102 26 65 48 127 50 136 2 9 12 45 23 81 37 118 71 309 88 488 5 51 5
391 1 415 -3 11 -8 52 -12 90 -18 180 -92 460 -176 663 -250 601 -769 1113
-1369 1350 -152 60 -355 120 -464 136 -21 4 -48 8 -60 11 -12 2 -43 7 -71 11
-27 3 -61 8 -75 10 -30 5 -417 13 -422 9z"/>
</g>
</svg>
